<svg width="83" height="53" fill="none" xmlns="http://www.w3.org/2000/svg"><path d="M46.644.307a8.14 8.14 0 012.721-.291c.17 2.034-.484 4.14-1.85 5.668-1.379 1.565-3.436 2.476-5.513 2.53a8.708 8.708 0 01-1.084-.036c-.043-1.812.528-3.64 1.628-5.083A7.798 7.798 0 0146.644.307zM39.965 9.58c.303-.265.726-.449 1.131-.335.253.071.51.171.703.355a118.664 118.664 0 014.276 3.946c1.864 1.818 3.69 3.683 5.33 5.708 2.143 2.981 2.96 6.872 2.208 10.465a13.18 13.18 0 01-4.178 7.219c-2.373 2.112-5.523 3.33-8.701 3.347a13.248 13.248 0 01-10.515-5.682 13.138 13.138 0 01-2.222-5.748c1.775-.001 3.55.002 5.326-.001a7.821 7.821 0 002.697 4.297 7.967 7.967 0 005.51 1.748 7.919 7.919 0 004.956-2.14 7.717 7.717 0 002.38-4.664 7.673 7.673 0 00-1.375-5.41 7.91 7.91 0 00-4.474-3.059c-1.948-.5-4.084-.24-5.843.741a7.83 7.83 0 00-3.478 3.903c-.142.332-.237.681-.344 1.026-1.782-.008-3.565-.001-5.348-.003a13.42 13.42 0 012.379-5.977c1.084-1.511 2.34-2.89 3.634-4.223a89.285 89.285 0 015.947-5.514z" fill="#1DC46C"/><path d="M5.932 11.76l.181 3.238c2.073-2.504 4.793-3.756 8.16-3.756 5.838 0 8.808 3.342 8.912 10.025V39.79H16.89V21.63c0-1.778-.389-3.09-1.166-3.937-.76-.863-2.012-1.295-3.756-1.295-2.539 0-4.43 1.149-5.673 3.446V39.79H0V11.76h5.932zm61.475 16.562l-2.798 2.876v9.144h-6.294V.552h6.294v22.952l1.969-2.46 7.745-8.73h7.565L71.474 23.995l11.527 16.346h-7.279l-8.315-12.02zM20.534 47.404c0-.587.119-1.1.356-1.54a2.59 2.59 0 01.975-1.037c.42-.245.887-.367 1.404-.367.447 0 .863.105 1.247.314.384.203.678.472.88.807v-3.039h.964v7.754h-.964v-1.079a2.269 2.269 0 01-.838.849c-.37.216-.803.325-1.3.325a2.65 2.65 0 01-1.393-.378 2.646 2.646 0 01-.975-1.058c-.237-.454-.356-.97-.356-1.55zm4.862.01c0-.432-.087-.81-.262-1.13a1.804 1.804 0 00-.712-.734 1.87 1.87 0 00-.975-.262 1.93 1.93 0 00-.974.251 1.825 1.825 0 00-.702.734c-.175.321-.262.698-.262 1.131 0 .44.087.825.262 1.153.174.321.408.57.702.744.293.168.618.251.974.251.357 0 .681-.083.975-.251.3-.175.538-.423.712-.744.175-.328.262-.71.262-1.142zm7.815-.209c0 .182-.01.374-.032.577h-4.59c.036.565.228 1.009.577 1.33a1.88 1.88 0 001.289.472c.412 0 .754-.095 1.027-.283.28-.196.475-.454.587-.776h1.027a2.494 2.494 0 01-.922 1.352c-.462.342-1.034.514-1.719.514a2.932 2.932 0 01-1.467-.367 2.615 2.615 0 01-1.006-1.037c-.244-.455-.367-.978-.367-1.572 0-.594.12-1.114.357-1.562.237-.447.569-.789.995-1.026.433-.245.93-.367 1.488-.367.545 0 1.027.119 1.446.356.42.238.74.566.964.985.23.412.346.88.346 1.404zm-.985-.199c0-.363-.08-.674-.241-.932a1.516 1.516 0 00-.66-.598 1.968 1.968 0 00-.912-.21c-.482 0-.894.154-1.236.462-.336.307-.528.733-.577 1.278h3.626zm3.197-4.464v7.754h-.954v-7.754h.954zm2.118 1.08a.627.627 0 01-.461-.189.627.627 0 01-.19-.461c0-.182.064-.335.19-.461a.627.627 0 01.46-.189c.175 0 .322.063.44.189.126.126.19.28.19.46a.627.627 0 01-.19.462.581.581 0 01-.44.189zm.46.932v5.742h-.953v-5.742h.954zm3.763 4.862l1.782-4.862h1.016l-2.253 5.742H41.2l-2.253-5.742h1.027l1.791 4.862zm8.976-2.21c0 .18-.01.373-.032.575h-4.59c.036.566.228 1.01.577 1.331a1.88 1.88 0 001.289.472c.412 0 .754-.095 1.027-.283.28-.196.475-.454.586-.776h1.027a2.493 2.493 0 01-.922 1.352c-.46.342-1.034.514-1.718.514a2.932 2.932 0 01-1.467-.367 2.616 2.616 0 01-1.006-1.037c-.245-.455-.367-.978-.367-1.572 0-.594.119-1.114.357-1.562.237-.447.569-.789.995-1.026.433-.245.929-.367 1.488-.367.545 0 1.027.119 1.446.356.419.238.74.566.964.985.23.412.346.88.346 1.404zm-.985-.2c0-.363-.08-.674-.241-.932a1.517 1.517 0 00-.66-.598 1.969 1.969 0 00-.912-.21c-.482 0-.894.154-1.236.462-.336.307-.528.733-.577 1.278h3.626zm3.197-1.52c.168-.328.405-.582.712-.764.315-.182.695-.273 1.142-.273v.985h-.25c-1.07 0-1.604.58-1.604 1.74v3.122h-.954v-5.742h.954v.933zm7.901-.932L57.395 53h-.985l1.132-2.767-2.316-5.679h1.059l1.802 4.653 1.781-4.653h.985z" fill="#fff"/></svg>