<svg width="132" height="85" fill="none" xmlns="http://www.w3.org/2000/svg"><path d="M74.18.488a12.946 12.946 0 014.328-.463c.268 3.236-.77 6.585-2.943 9.015-2.193 2.489-5.465 3.938-8.767 4.022a13.86 13.86 0 01-1.724-.057c-.068-2.882.839-5.787 2.59-8.083A12.402 12.402 0 0174.178.488zM63.557 15.234c.483-.42 1.156-.712 1.8-.53.401.112.81.271 1.117.564 2.32 2.035 4.585 4.13 6.801 6.275 2.964 2.89 5.869 5.856 8.476 9.078 3.409 4.74 4.707 10.928 3.512 16.642a20.96 20.96 0 01-6.645 11.48c-3.774 3.36-8.784 5.298-13.838 5.324a21.07 21.07 0 01-9.46-2.536 20.97 20.97 0 01-7.262-6.501 20.894 20.894 0 01-3.534-9.141c2.823-.002 5.647.003 8.47-.002a12.439 12.439 0 004.29 6.834 12.67 12.67 0 008.763 2.78 12.593 12.593 0 007.88-3.403c2.07-1.934 3.444-4.603 3.785-7.417a12.203 12.203 0 00-2.185-8.604c-1.697-2.396-4.271-4.143-7.115-4.865-3.098-.796-6.496-.382-9.294 1.178-2.476 1.362-4.477 3.581-5.53 6.208-.227.528-.378 1.083-.547 1.63-2.834-.012-5.67 0-8.506-.004a21.343 21.343 0 013.784-9.505c1.724-2.404 3.721-4.596 5.779-6.716 3.01-3.072 6.183-5.983 9.459-8.769z" fill="#1DC46C"/><path d="M9.434 18.703l.289 5.15c3.295-3.983 7.62-5.974 12.976-5.974 9.284 0 14.007 5.314 14.172 15.943v29.456h-10.01v-28.88c0-2.828-.619-4.915-1.854-6.261-1.209-1.373-3.2-2.06-5.974-2.06-4.037 0-7.045 1.826-9.022 5.48v31.721H0V18.703h9.434zM107.2 45.042l-4.449 4.573v14.542h-10.01V.88h10.01v36.5l3.131-3.913L118.2 19.582h12.03l-16.562 18.58L132 64.157h-11.576L107.2 45.043zM32.656 75.389c0-.933.19-1.75.567-2.45a4.117 4.117 0 011.55-1.65 4.35 4.35 0 012.233-.583c.71 0 1.372.167 1.983.5.61.322 1.077.75 1.4 1.283v-4.832h1.533v12.331h-1.533v-1.716c-.3.544-.745.994-1.334 1.35-.588.344-1.277.516-2.066.516-.811 0-1.55-.2-2.216-.6a4.208 4.208 0 01-1.55-1.683c-.378-.722-.567-1.544-.567-2.466zm7.733.017c0-.69-.14-1.29-.417-1.8a2.87 2.87 0 00-1.133-1.167 2.973 2.973 0 00-1.55-.416c-.567 0-1.083.133-1.55.4a2.901 2.901 0 00-1.116 1.166c-.278.511-.417 1.111-.417 1.8 0 .7.139 1.31.417 1.833.277.51.65.905 1.116 1.183.467.267.983.4 1.55.4.566 0 1.083-.133 1.55-.4a2.984 2.984 0 001.133-1.183c.278-.522.416-1.128.416-1.816zm12.427-.334c0 .289-.016.595-.05.917h-7.298c.055.9.36 1.605.916 2.116.567.5 1.25.75 2.05.75.655 0 1.2-.15 1.633-.45.444-.311.755-.722.933-1.233h1.633a3.966 3.966 0 01-1.466 2.15c-.734.544-1.645.816-2.733.816-.867 0-1.645-.194-2.333-.583a4.16 4.16 0 01-1.6-1.65c-.389-.722-.583-1.555-.583-2.5 0-.944.189-1.772.566-2.483a3.938 3.938 0 011.583-1.633c.69-.388 1.478-.583 2.367-.583.866 0 1.633.189 2.3.567.666.377 1.177.9 1.532 1.566.367.656.55 1.4.55 2.233zm-1.566-.316c0-.578-.128-1.073-.383-1.484a2.412 2.412 0 00-1.05-.95 3.13 3.13 0 00-1.45-.333c-.767 0-1.422.245-1.966.733-.534.49-.84 1.167-.917 2.034h5.766zm5.084-7.1v12.332h-1.516V67.657h1.517zm3.368 1.717a.998.998 0 01-.733-.3c-.2-.2-.3-.444-.3-.733s.1-.533.3-.733c.2-.2.444-.3.733-.3.278 0 .511.1.7.3.2.2.3.444.3.733s-.1.533-.3.733c-.189.2-.422.3-.7.3zm.733 1.483v9.132H58.92v-9.132h1.517zm5.984 7.732l2.833-7.732h1.617l-3.583 9.132H65.52l-3.583-9.132h1.633l2.85 7.732zm14.274-3.516c0 .289-.016.595-.05.917h-7.299c.056.9.361 1.605.917 2.116.566.5 1.25.75 2.05.75.655 0 1.2-.15 1.633-.45.444-.311.755-.722.933-1.233h1.633a3.966 3.966 0 01-1.467 2.15c-.733.544-1.644.816-2.732.816-.867 0-1.645-.194-2.333-.583a4.158 4.158 0 01-1.6-1.65c-.39-.722-.584-1.555-.584-2.5 0-.944.19-1.772.567-2.483a3.938 3.938 0 011.583-1.633c.689-.388 1.478-.583 2.367-.583.866 0 1.633.189 2.3.567.666.377 1.177.9 1.532 1.566.367.656.55 1.4.55 2.233zm-1.566-.316c0-.578-.128-1.073-.383-1.484a2.412 2.412 0 00-1.05-.95 3.13 3.13 0 00-1.45-.333c-.767 0-1.422.245-1.966.733-.534.49-.84 1.167-.917 2.034h5.766zm5.084-2.417a2.924 2.924 0 011.133-1.216c.5-.29 1.106-.434 1.817-.434v1.567h-.4c-1.7 0-2.55.922-2.55 2.766v4.966h-1.516v-9.132h1.516v1.483zm12.566-1.483l-5.5 13.431h-1.566l1.8-4.399-3.683-9.032h1.683l2.867 7.4 2.833-7.4h1.566z" fill="#fff"/></svg>