<svg width="15" height="16" fill="none" xmlns="http://www.w3.org/2000/svg"><path d="M13.086 1.612a3.74 3.74 0 00-5.284 0L2.238 7.176a.44.44 0 10.622.622l5.564-5.564c1.08-1.08 2.96-1.08 4.04 0a2.86 2.86 0 010 4.04l-7.768 7.857c-.665.665-1.822.665-2.487 0a1.76 1.76 0 010-2.486l7.458-7.546a.675.675 0 01.933 0 .66.66 0 010 .932l-7.147 7.235c-.149.149-.149.474 0 .622a.44.44 0 00.621 0l7.147-7.235c.6-.6.6-1.576 0-2.176-.58-.581-1.595-.58-2.175 0l-7.459 7.546a2.655 2.655 0 000 3.73 2.619 2.619 0 001.866.767c.704 0 1.366-.269 1.864-.767l7.77-7.857a3.74 3.74 0 000-5.284z" fill="#325F93"/></svg>