<svg width="130" height="40" fill="none" xmlns="http://www.w3.org/2000/svg"><g clip-path="url(#clip0_402_6219)"><path d="M119.648 0H10.358C9.96 0 9.566 0 9.17.002c-.333.002-.663.008-.998.013-.73.008-1.458.067-2.177.177A7.684 7.684 0 003.93.819a7 7 0 00-1.76 1.178A6.31 6.31 0 00.211 5.522a11.989 11.989 0 00-.195 2.002c-.01.306-.01.614-.016.92V31.56c.005.31.006.611.016.922.01.67.074 1.34.195 2.002a6.26 6.26 0 001.959 3.519 6.823 6.823 0 001.76 1.177c.65.304 1.346.517 2.065.63.72.11 1.447.169 2.177.177.335.007.665.011.998.011.397.002.79.002 1.19.002h109.289c.39 0 .787 0 1.177-.002.331 0 .671-.004 1.002-.01A15.63 15.63 0 00124 39.81a7.85 7.85 0 002.073-.631A6.818 6.818 0 00127.829 38a6.429 6.429 0 001.284-1.614 6.25 6.25 0 00.673-1.904c.121-.662.188-1.331.201-2.002.005-.311.005-.612.005-.922.008-.364.008-.725.008-1.094V9.536c0-.366 0-.73-.008-1.092 0-.306 0-.614-.005-.92-.013-.671-.08-1.34-.201-2.002a6.247 6.247 0 00-.673-1.904c-.671-1.203-1.734-2.182-3.04-2.8A7.812 7.812 0 00124 .191a15.343 15.343 0 00-2.173-.176c-.331-.005-.671-.011-1.002-.013-.39-.002-.787-.002-1.177-.002z" fill="#A6A6A6"/><path d="M9.174 39.125c-.33 0-.654-.004-.982-.01a14.955 14.955 0 01-2.03-.164 6.783 6.783 0 01-1.8-.548 5.878 5.878 0 01-1.518-1.016 5.41 5.41 0 01-1.699-3.054 11.454 11.454 0 01-.18-1.875c-.008-.21-.017-.913-.017-.913v-23.1s.01-.692.016-.895c.008-.628.069-1.253.18-1.872a5.441 5.441 0 011.693-3.06 6.05 6.05 0 011.524-1.023 6.714 6.714 0 011.796-.544A14.825 14.825 0 018.194.887l.98-.012H120.82l.992.013a14.6 14.6 0 012.019.162 6.848 6.848 0 011.815.548c1.127.535 2.045 1.381 2.623 2.42.283.52.479 1.076.582 1.649.113.624.176 1.255.189 1.887.003.283.003.588.003.89.008.375.008.732.008 1.092v20.929c0 .363 0 .718-.008 1.075 0 .325 0 .623-.004.93a11.78 11.78 0 01-.186 1.853 5.399 5.399 0 01-.587 1.67 5.51 5.51 0 01-1.103 1.386 5.888 5.888 0 01-1.52 1.022 6.77 6.77 0 01-1.812.55 14.78 14.78 0 01-2.031.163c-.318.007-.651.011-.975.011l-1.178.002-110.473-.002z" fill="#000"/><path d="M26.908 20.3a4.651 4.651 0 01.7-2.379 5.161 5.161 0 011.86-1.773 5.38 5.38 0 00-1.89-1.55 5.876 5.876 0 00-2.445-.607c-1.825-.177-3.593 1.004-4.523 1.004-.947 0-2.379-.987-3.92-.958a6.143 6.143 0 00-2.82.775 5.542 5.542 0 00-2.04 1.953c-2.1 3.349-.533 8.27 1.48 10.976 1.006 1.326 2.183 2.806 3.723 2.753 1.507-.057 2.07-.884 3.889-.884 1.802 0 2.33.884 3.9.851 1.618-.024 2.637-1.331 3.608-2.669a10.63 10.63 0 001.65-3.093 5.12 5.12 0 01-2.305-1.76 4.515 4.515 0 01-.867-2.639zm-2.967-8.089c.882-.974 1.316-2.226 1.21-3.49-1.346.13-2.59.722-3.484 1.66-.437.457-.771.99-.985 1.566a4.294 4.294 0 00-.257 1.795 4.778 4.778 0 001.949-.393 4.415 4.415 0 001.567-1.138zM45.957 27.14h-5.143l-1.235 3.356h-2.178l4.871-12.418h2.263l4.87 12.418H47.19l-1.233-3.356zm-4.61-1.55h4.076l-2.01-5.446h-.056l-2.01 5.447zm18.577.38c0 2.813-1.636 4.62-4.105 4.62a3.569 3.569 0 01-1.794-.382 3.213 3.213 0 01-1.3-1.201h-.047v4.484H50.66V21.442h1.954v1.506h.038a3.37 3.37 0 011.325-1.198 3.732 3.732 0 011.806-.403c2.497 0 4.142 1.817 4.142 4.622zm-2.075 0c0-1.833-1.03-3.039-2.6-3.039-1.542 0-2.58 1.23-2.58 3.038 0 1.825 1.038 3.046 2.58 3.046 1.57 0 2.6-1.196 2.6-3.046zm12.901 0c0 2.813-1.636 4.62-4.104 4.62a3.571 3.571 0 01-1.795-.382 3.213 3.213 0 01-1.3-1.201h-.047v4.484h-2.019V21.442h1.955v1.506h.037a3.37 3.37 0 011.325-1.198 3.733 3.733 0 011.806-.403c2.497 0 4.142 1.817 4.142 4.622zm-2.075 0c0-1.834-1.029-3.039-2.6-3.039-1.542 0-2.58 1.23-2.58 3.038 0 1.825 1.038 3.046 2.58 3.046 1.571 0 2.6-1.196 2.6-3.046zm9.23 1.066c.15 1.232 1.449 2.04 3.225 2.04 1.702 0 2.926-.808 2.926-1.919 0-.964-.739-1.54-2.487-1.936l-1.748-.388c-2.478-.55-3.628-1.617-3.628-3.348 0-2.142 2.029-3.614 4.91-3.614 2.85 0 4.804 1.472 4.87 3.614h-2.038c-.122-1.239-1.235-1.987-2.862-1.987-1.626 0-2.739.757-2.739 1.858 0 .878.711 1.395 2.45 1.79l1.486.336c2.768.603 3.918 1.626 3.918 3.443 0 2.323-2.01 3.778-5.208 3.778-2.992 0-5.012-1.42-5.142-3.667h2.067zM90.546 19.3v2.143h1.87v1.472h-1.87v4.991c0 .776.374 1.137 1.196 1.137.222-.004.444-.018.664-.043v1.463a6.02 6.02 0 01-1.121.086c-1.991 0-2.768-.689-2.768-2.444v-5.19h-1.43v-1.472h1.43v-2.142h2.029zm2.953 6.67c0-2.848 1.823-4.638 4.665-4.638 2.852 0 4.666 1.79 4.666 4.639 0 2.856-1.805 4.638-4.666 4.638-2.86 0-4.665-1.782-4.665-4.638zm7.274 0c0-1.953-.973-3.107-2.61-3.107-1.635 0-2.607 1.162-2.607 3.108 0 1.962.972 3.106 2.608 3.106 1.636 0 2.609-1.144 2.609-3.106zm3.721-4.528h1.926v1.541h.046c.131-.481.437-.907.868-1.204.431-.298.96-.45 1.498-.432.233 0 .465.023.692.07v1.738a3.05 3.05 0 00-.907-.112 2.189 2.189 0 00-.857.14 2.047 2.047 0 00-.716.456 1.86 1.86 0 00-.442.69 1.731 1.731 0 00-.089.797v5.37h-2.019v-9.054zm14.338 6.396c-.271 1.643-2.01 2.771-4.235 2.771-2.861 0-4.637-1.764-4.637-4.595 0-2.84 1.785-4.682 4.552-4.682 2.722 0 4.433 1.72 4.433 4.466v.637h-6.947v.112a2.18 2.18 0 00.133.985c.12.315.311.604.561.847.25.242.554.433.89.56.337.126.699.185 1.062.172a2.38 2.38 0 001.365-.29c.409-.23.727-.574.906-.983h1.917zm-6.824-2.702h4.917c.018-.3-.031-.6-.145-.88a2.16 2.16 0 00-.516-.754 2.39 2.39 0 00-.8-.5 2.551 2.551 0 00-.952-.164 2.684 2.684 0 00-.959.171c-.304.115-.58.284-.813.497a2.277 2.277 0 00-.543.748c-.126.28-.19.58-.189.882zM39.911 11.253h.867c.149.018.3.006.445-.034a1.12 1.12 0 00.392-.195c.115-.09.209-.2.275-.324a.94.94 0 00.11-.398c0-.55-.45-.906-1.213-.906a1.253 1.253 0 00-.457.026c-.15.037-.29.1-.411.188a1.094 1.094 0 00-.3.32c-.075.123-.123.26-.14.401h-.951c.016-.256.09-.507.216-.736.126-.229.302-.431.517-.595.214-.164.463-.285.731-.356.269-.072.55-.091.826-.058 1.276 0 2.175.658 2.175 1.604.003.318-.112.626-.327.875a1.528 1.528 0 01-.85.49v.07c.398.017.774.178 1.044.448s.413.628.397.995c-.03.264-.116.52-.254.753a2.045 2.045 0 01-.551.603 2.239 2.239 0 01-.762.359 2.345 2.345 0 01-.854.06 2.338 2.338 0 01-.857-.052 2.233 2.233 0 01-.767-.356 2.038 2.038 0 01-.556-.603 1.872 1.872 0 01-.255-.755h.967c.058.57.628.939 1.468.939s1.389-.414 1.389-.997c0-.591-.517-.956-1.42-.956h-.894v-.81zm4.444 2.171c0-.81.657-1.278 1.82-1.344l1.325-.07v-.39c0-.475-.34-.743-1.002-.743-.538 0-.91.182-1.019.5h-.935c.099-.774.89-1.27 2-1.27 1.227 0 1.918.562 1.918 1.514v3.076h-.93v-.632h-.076a1.603 1.603 0 01-.631.536 1.766 1.766 0 01-.839.17 1.6 1.6 0 01-.61-.059 1.513 1.513 0 01-.53-.281 1.372 1.372 0 01-.361-.456 1.269 1.269 0 01-.13-.551zm3.145-.385v-.376l-1.195.07c-.673.041-.979.252-.979.65 0 .405.382.64.907.64a1.234 1.234 0 00.86-.245c.118-.091.215-.204.285-.331a.996.996 0 00.122-.408zm3.524-2.096v3.755h-.965v-4.503h3.22v.748h-2.255zm8.106 1.501c0 1.43-.785 2.327-2.02 2.327a1.709 1.709 0 01-.873-.176 1.538 1.538 0 01-.633-.58h-.076v2.18h-.965v-6h.929v.743h.072c.15-.253.372-.464.643-.608.27-.145.58-.217.893-.21 1.245 0 2.03.893 2.03 2.324zm-.992 0c0-.951-.49-1.526-1.307-1.526-.813 0-1.321.587-1.321 1.53 0 .938.508 1.526 1.317 1.526.822 0 1.31-.575 1.31-1.53zm2.279 3.867v-.765c.104.012.21.018.315.017a.889.889 0 00.573-.159.764.764 0 00.312-.47l.072-.22-1.771-4.519h1.051l1.227 3.577h.076l1.222-3.577h1.024l-1.824 4.69c-.418 1.095-.88 1.447-1.877 1.447-.081 0-.31-.009-.4-.021zm4.853-2.891h.962c.094.398.498.604 1.064.604.643 0 1.037-.26 1.037-.665 0-.435-.354-.642-1.037-.642h-.732v-.69h.719c.584 0 .88-.207.88-.583 0-.33-.287-.583-.88-.583-.54 0-.935.21-.997.566h-.93c.069-.408.31-.775.67-1.022.36-.246.812-.353 1.257-.296 1.163 0 1.828.483 1.828 1.244a.877.877 0 01-.209.587c-.14.168-.34.286-.563.335v.07c.266.032.511.153.687.34a.964.964 0 01.27.673c0 .856-.792 1.423-2 1.423-1.069 0-1.936-.45-2.026-1.36zm5.416 1.278v-4.503h.956v3.098h.077l2.254-3.098h.957v4.503h-.957v-3.114h-.072l-2.258 3.114h-.957zm9.516-3.755h-1.54v3.755h-.967v-3.755h-1.54v-.748h4.047v.748zm5.2 2.539a1.849 1.849 0 01-.803 1.005 2.123 2.123 0 01-1.317.297 2.39 2.39 0 01-.939-.166 2.226 2.226 0 01-.776-.514 2.009 2.009 0 01-.47-.767 1.89 1.89 0 01-.075-.877 1.919 1.919 0 01.077-.88 2.04 2.04 0 01.467-.77c.214-.223.478-.401.773-.522.295-.122.615-.183.938-.18 1.361 0 2.184.855 2.184 2.27v.31h-3.455v.05a1.1 1.1 0 00.066.488c.059.157.153.3.275.422.123.122.272.218.438.283.165.066.344.098.524.096.23.026.465-.012.672-.11.207-.097.378-.249.49-.435h.931zm-3.396-1.452h2.47a1.006 1.006 0 00-.065-.445 1.075 1.075 0 00-.256-.383 1.187 1.187 0 00-.402-.255 1.268 1.268 0 00-.48-.083 1.345 1.345 0 00-.487.084 1.263 1.263 0 00-.414.253 1.148 1.148 0 00-.274.38 1.07 1.07 0 00-.092.45zm7.489-1.835h2.206c.957 0 1.518.447 1.518 1.145a.92.92 0 01-.23.61c-.15.174-.361.294-.597.341v.07c.286.017.554.134.749.328a.984.984 0 01.297.71c0 .787-.641 1.3-1.715 1.3h-2.228v-4.504zm.957.682v1.166h.957c.584 0 .862-.206.862-.587 0-.351-.242-.579-.755-.579h-1.064zm0 1.82v1.32h1.145c.57 0 .876-.233.876-.659 0-.45-.346-.661-.997-.661h-1.024z" fill="#fff"/></g><defs><clipPath id="clip0_402_6219"><path fill="#fff" d="M0 0h130v40H0z"/></clipPath></defs></svg>