<svg width="14" height="14" fill="none" xmlns="http://www.w3.org/2000/svg"><path d="M4.782 8.069l-.353.342a.257.257 0 00-.077.184v.146c0 .141.114.256.256.256h2.104a.257.257 0 00.257-.256v-.19a.257.257 0 00-.257-.256H5.55l.032-.03c.76-.731 1.297-1.308 1.297-2.058 0-.6-.39-1.205-1.26-1.205-.381 0-.754.122-1.05.344a.257.257 0 00-.08.31l.065.144a.256.256 0 00.38.104c.191-.133.387-.2.583-.2.383 0 .576.19.576.562-.005.504-.423.957-1.311 1.803z" fill="#2BC36F"/><path d="M8.617 5.065h-.099a.257.257 0 00-.21.11L6.737 7.422a.257.257 0 00-.047.147v.18c0 .142.115.257.257.257h1.435v.734c0 .142.115.257.256.257h.245a.257.257 0 00.257-.257v-.734h.253a.257.257 0 00.256-.257v-.166a.257.257 0 00-.256-.257H9.14V5.321a.257.257 0 00-.257-.256h-.265zm-.235 2.262h-.775c.197-.286.533-.776.775-1.139v1.139z" fill="#2BC36F"/><path d="M7.01 12.89a5.483 5.483 0 01-5.476-5.476 5.484 5.484 0 015-5.456v.873a.168.168 0 00.262.14l1.982-1.332a.168.168 0 000-.279L6.796.03a.168.168 0 00-.262.139v.677a6.595 6.595 0 00-6.11 6.569A6.594 6.594 0 007.01 14a6.561 6.561 0 004.507-1.784l-.76-.809A5.455 5.455 0 017.01 12.89zm5.622-8.91a6.612 6.612 0 00-.788-1.04l-.815.753c.247.267.467.558.656.867l.947-.58zm-.196 2.69l1.1-.149a6.57 6.57 0 00-.304-1.271l-1.048.364c.118.342.203.697.252 1.056zm-1.649-4.653a6.588 6.588 0 00-1.139-.64l-.445 1.017c.331.145.65.324.947.532l.637-.909zm.453 8.875l.857.705c.277-.337.522-.702.726-1.086l-.979-.523c-.17.32-.373.623-.604.904zm1.23-3.054a5.479 5.479 0 01-.19 1.07l1.068.301a6.65 6.65 0 00.229-1.287l-1.107-.084z" fill="#2BC36F"/></svg>