<svg width="19" height="29" fill="none" xmlns="http://www.w3.org/2000/svg"><path d="M13.055.224a5.596 5.596 0 011.927-.213c.119 1.486-.343 3.024-1.31 4.14-.976 1.142-2.433 1.807-3.903 1.846a5.978 5.978 0 01-.767-.026c-.03-1.323.373-2.657 1.152-3.711a5.519 5.519 0 012.9-2.036zM8.783 7.26c.223-.186.533-.316.83-.236.186.05.374.121.516.252a86.17 86.17 0 013.139 2.793c1.367 1.287 2.708 2.607 3.91 4.041 1.574 2.111 2.173 4.866 1.621 7.41-.412 1.964-1.507 3.786-3.066 5.11-1.742 1.496-4.054 2.359-6.386 2.37a10 10 0 01-4.365-1.129 9.569 9.569 0 01-3.351-2.894A9.11 9.11 0 010 20.907c1.303 0 2.606.002 3.908 0a5.516 5.516 0 001.98 3.042 5.991 5.991 0 004.044 1.238 5.917 5.917 0 003.637-1.515 5.4 5.4 0 001.746-3.302 5.288 5.288 0 00-1.008-3.83c-.784-1.067-1.971-1.845-3.284-2.166a6.077 6.077 0 00-4.288.524c-1.143.606-2.067 1.595-2.552 2.764-.105.235-.175.482-.253.726-1.308-.006-2.616 0-3.925-.002a9.314 9.314 0 011.746-4.232c.796-1.07 1.717-2.046 2.667-2.99a64.72 64.72 0 014.365-3.903z" fill="#325F93" fill-opacity=".1"/></svg>