<svg width="17" height="18" fill="none" xmlns="http://www.w3.org/2000/svg"><path d="M12.398 0H4.602C2.064 0 0 2.186 0 4.872v8.256C0 15.814 2.064 18 4.602 18h7.796C14.936 18 17 15.814 17 13.128V4.872C17 2.186 14.936 0 12.398 0zM8.5 13.922c-2.563 0-4.648-2.208-4.648-4.922 0-2.714 2.085-4.922 4.648-4.922 2.563 0 4.648 2.208 4.648 4.922 0 2.714-2.085 4.922-4.648 4.922zm4.76-8.683c-.758 0-1.374-.652-1.374-1.454 0-.802.616-1.455 1.373-1.455.758 0 1.374.653 1.374 1.455s-.616 1.454-1.374 1.454z" fill="#D5D5D5"/><path d="M8.5 5.133c-2.013 0-3.651 1.734-3.651 3.866s1.638 3.867 3.651 3.867c2.014 0 3.652-1.735 3.652-3.867 0-2.132-1.638-3.866-3.652-3.866zm4.76-1.748a.389.389 0 00-.377.399c0 .22.169.399.377.399a.389.389 0 00.377-.4c0-.22-.17-.398-.377-.398z" fill="#D5D5D5"/></svg>