<svg width="83" height="53" viewBox="0 0 83 53" fill="none" xmlns="http://www.w3.org/2000/svg">
<path d="M46.6436 0.307048C47.5255 0.0565259 48.4505 -0.0410988 49.3654 0.0156594C49.5341 2.05022 48.8814 4.15648 47.515 5.68423C46.1363 7.2491 44.0789 8.16029 42.0024 8.21338C41.6405 8.22604 41.2786 8.21015 40.9183 8.17776C40.8753 6.3656 41.4458 4.5385 42.5464 3.0951C43.5595 1.75098 45.0241 0.760241 46.6436 0.307048Z" fill="#1DC46C"/>
<path d="M39.9645 9.57915C40.2685 9.31544 40.6915 9.13128 41.0963 9.24541C41.349 9.31649 41.6058 9.41629 41.799 9.60045C43.2573 10.8804 44.6821 12.1969 46.0755 13.5464C47.9392 15.3639 49.7658 17.2287 51.4049 19.2542C53.5483 22.2354 54.3645 26.1257 53.6131 29.7188C53.0511 32.4942 51.5594 35.0679 49.4347 36.9379C47.0621 39.0505 43.9116 40.2688 40.734 40.2848C38.6622 40.2312 36.6064 39.6788 34.7853 38.6907C32.9709 37.7111 31.3906 36.299 30.2189 34.6025C29.0344 32.8996 28.2703 30.9101 27.9971 28.8549C29.7721 28.8538 31.5477 28.8565 33.3227 28.8538C33.7111 30.5339 34.677 32.0702 36.0201 33.1506C37.5516 34.3971 39.5606 35.0323 41.5305 34.8991C43.3644 34.7946 45.1533 34.024 46.4858 32.7589C47.7874 31.5432 48.6509 29.8647 48.8652 28.095C49.1072 26.2032 48.6074 24.2318 47.4913 22.6854C46.4242 21.1783 44.8057 20.0799 43.0174 19.6261C41.0693 19.1253 38.9329 19.3858 37.1737 20.367C35.6168 21.223 34.3581 22.6186 33.6963 24.2705C33.5536 24.6022 33.4586 24.9514 33.3524 25.2958C31.57 25.2878 29.787 25.2947 28.004 25.2925C28.2963 23.146 29.1215 21.0764 30.3828 19.3157C31.467 17.8045 32.7231 16.4263 34.0169 15.0933C35.9097 13.1616 37.9044 11.3309 39.9645 9.57915Z" fill="#1DC46C"/>
<path d="M5.93211 11.7603L6.11347 14.9984C8.18585 12.4942 10.9058 11.2422 14.2734 11.2422C20.1106 11.2422 23.081 14.5838 23.1846 21.2673V39.789H16.8898V21.6299C16.8898 19.8511 16.5012 18.5386 15.724 17.6924C14.9642 16.8289 13.7122 16.3971 11.9679 16.3971C9.42929 16.3971 7.53819 17.5456 6.29484 19.8425V39.789H0V11.7603H5.93211Z" fill="white"/>
<path d="M67.4066 28.3224L64.6093 31.1978V40.3421H58.3145V0.552734H64.6093V23.5041L66.5779 21.0432L74.3232 12.3134H81.8878L71.474 23.9963L83.0011 40.3421H75.7221L67.4066 28.3224Z" fill="white"/>
<path d="M20.5342 47.4043C20.5342 46.8175 20.6529 46.3041 20.8904 45.864C21.128 45.4169 21.4528 45.0711 21.8649 44.8266C22.2841 44.5821 22.7521 44.4599 23.2691 44.4599C23.7161 44.4599 24.1318 44.5647 24.516 44.7742C24.9002 44.9768 25.1936 45.2458 25.3962 45.5811V42.5423H26.3602V50.2964H25.3962V49.2171C25.2076 49.5594 24.9281 49.8423 24.5579 50.0658C24.1877 50.2824 23.7546 50.3907 23.2586 50.3907C22.7486 50.3907 22.2841 50.2649 21.8649 50.0134C21.4528 49.762 21.128 49.4092 20.8904 48.9551C20.6529 48.5011 20.5342 47.9841 20.5342 47.4043ZM25.3962 47.4148C25.3962 46.9817 25.3089 46.6045 25.1342 46.2831C24.9596 45.9618 24.7221 45.7173 24.4217 45.5496C24.1283 45.375 23.8035 45.2877 23.4472 45.2877C23.0909 45.2877 22.7661 45.3715 22.4727 45.5391C22.1793 45.7068 21.9453 45.9513 21.7706 46.2726C21.596 46.594 21.5087 46.9712 21.5087 47.4043C21.5087 47.8444 21.596 48.2286 21.7706 48.5569C21.9453 48.8783 22.1793 49.1263 22.4727 49.3009C22.7661 49.4686 23.0909 49.5524 23.4472 49.5524C23.8035 49.5524 24.1283 49.4686 24.4217 49.3009C24.7221 49.1263 24.9596 48.8783 25.1342 48.5569C25.3089 48.2286 25.3962 47.8479 25.3962 47.4148ZM33.2108 47.2052C33.2108 47.3868 33.2003 47.579 33.1794 47.7815H28.5898C28.6248 48.3474 28.8169 48.791 29.1661 49.1123C29.5224 49.4267 29.952 49.5838 30.455 49.5838C30.8671 49.5838 31.2094 49.4895 31.4819 49.3009C31.7613 49.1053 31.9569 48.8468 32.0687 48.5255H33.0956C32.9419 49.0774 32.6345 49.5279 32.1735 49.8772C31.7124 50.2195 31.1396 50.3907 30.455 50.3907C29.9101 50.3907 29.4211 50.2684 28.988 50.0239C28.5619 49.7794 28.2266 49.4336 27.9821 48.9866C27.7376 48.5325 27.6153 48.0086 27.6153 47.4148C27.6153 46.821 27.7341 46.3006 27.9716 45.8535C28.2091 45.4064 28.5409 45.0641 28.9671 44.8266C29.4002 44.5821 29.8961 44.4599 30.455 44.4599C30.9999 44.4599 31.4819 44.5786 31.901 44.8161C32.3202 45.0536 32.6415 45.382 32.865 45.8011C33.0956 46.2133 33.2108 46.6813 33.2108 47.2052ZM32.2259 47.0061C32.2259 46.6429 32.1455 46.332 31.9848 46.0736C31.8242 45.8081 31.6041 45.609 31.3247 45.4763C31.0523 45.3366 30.7484 45.2667 30.4131 45.2667C29.9311 45.2667 29.5189 45.4204 29.1766 45.7278C28.8413 46.0351 28.6492 46.4613 28.6003 47.0061H32.2259ZM35.423 42.5423V50.2964H34.4695V42.5423H35.423ZM37.5406 43.6216C37.359 43.6216 37.2053 43.5587 37.0796 43.433C36.9538 43.3072 36.8909 43.1536 36.8909 42.9719C36.8909 42.7903 36.9538 42.6366 37.0796 42.5109C37.2053 42.3851 37.359 42.3223 37.5406 42.3223C37.7152 42.3223 37.8619 42.3851 37.9807 42.5109C38.1064 42.6366 38.1693 42.7903 38.1693 42.9719C38.1693 43.1536 38.1064 43.3072 37.9807 43.433C37.8619 43.5587 37.7152 43.6216 37.5406 43.6216ZM38.0017 44.5542V50.2964H37.0481V44.5542H38.0017ZM41.7644 49.4162L43.5457 44.5542H44.5621L42.3093 50.2964H41.1985L38.9457 44.5542H39.9726L41.7644 49.4162ZM50.7397 47.2052C50.7397 47.3868 50.7292 47.579 50.7083 47.7815H46.1187C46.1536 48.3474 46.3457 48.791 46.695 49.1123C47.0513 49.4267 47.4809 49.5838 47.9839 49.5838C48.396 49.5838 48.7383 49.4895 49.0107 49.3009C49.2902 49.1053 49.4858 48.8468 49.5975 48.5255H50.6244C50.4707 49.0774 50.1634 49.5279 49.7023 49.8772C49.2413 50.2195 48.6684 50.3907 47.9839 50.3907C47.439 50.3907 46.95 50.2684 46.5169 50.0239C46.0908 49.7794 45.7554 49.4336 45.5109 48.9866C45.2664 48.5325 45.1442 48.0086 45.1442 47.4148C45.1442 46.821 45.263 46.3006 45.5005 45.8535C45.738 45.4064 46.0698 45.0641 46.4959 44.8266C46.929 44.5821 47.425 44.4599 47.9839 44.4599C48.5287 44.4599 49.0107 44.5786 49.4299 44.8161C49.849 45.0536 50.1704 45.382 50.3939 45.8011C50.6244 46.2133 50.7397 46.6813 50.7397 47.2052ZM49.7547 47.0061C49.7547 46.6429 49.6744 46.332 49.5137 46.0736C49.353 45.8081 49.133 45.609 48.8536 45.4763C48.5811 45.3366 48.2773 45.2667 47.9419 45.2667C47.4599 45.2667 47.0478 45.4204 46.7055 45.7278C46.3702 46.0351 46.1781 46.4613 46.1292 47.0061H49.7547ZM52.9519 45.4868C53.1195 45.1584 53.357 44.9035 53.6644 44.7218C53.9788 44.5402 54.3595 44.4494 54.8065 44.4494V45.4344H54.5551C53.4863 45.4344 52.9519 46.0142 52.9519 47.1738V50.2964H51.9983V44.5542H52.9519V45.4868ZM60.8531 44.5542L57.3952 52.9998H56.4103L57.5419 50.2335L55.2262 44.5542H56.2845L58.0868 49.2066L59.8682 44.5542H60.8531Z" fill="white"/>
</svg>
