<svg width="132" height="85" viewBox="0 0 132 85" fill="none" xmlns="http://www.w3.org/2000/svg">
<path d="M74.1791 0.48831C75.5817 0.0898953 77.0527 -0.065361 78.5077 0.0249038C78.776 3.26055 77.7379 6.61021 75.5649 9.03986C73.3723 11.5285 70.1004 12.9776 66.7981 13.0621C66.2225 13.0822 65.647 13.0569 65.0739 13.0054C65.0056 10.1235 65.9128 7.21776 67.6631 4.92226C69.2743 2.78465 71.6035 1.20904 74.1791 0.48831Z" fill="#1DC46C"/>
<path d="M63.5567 15.234C64.0402 14.8146 64.7129 14.5218 65.3567 14.7033C65.7585 14.8163 66.1669 14.975 66.4742 15.2679C68.7933 17.3034 71.0592 19.3972 73.2753 21.5433C76.2392 24.4338 79.144 27.3994 81.7509 30.6206C85.1596 35.3618 86.4576 41.5487 85.2626 47.2629C84.3689 51.6767 81.9966 55.7697 78.6175 58.7438C74.8442 62.1034 69.8338 64.0411 64.7804 64.0665C61.4856 63.9812 58.2162 63.1027 55.32 61.5313C52.4345 59.9733 49.9213 57.7277 48.0579 55.0296C46.1742 52.3215 44.9589 49.1575 44.5244 45.8889C47.3473 45.8873 50.1711 45.8916 52.994 45.8873C53.6117 48.5592 55.1478 51.0024 57.2837 52.7206C59.7193 54.7029 62.9144 55.7132 66.0472 55.5013C68.9637 55.3351 71.8086 54.1097 73.9277 52.0978C75.9978 50.1643 77.371 47.495 77.7119 44.6805C78.0967 41.6719 77.3018 38.5367 75.5269 36.0774C73.8298 33.6807 71.2559 31.9337 68.4118 31.2121C65.3137 30.4156 61.9161 30.83 59.1184 32.3903C56.6424 33.7516 54.6406 35.9712 53.5881 38.5983C53.3612 39.1257 53.2101 39.6811 53.0413 40.2288C50.2065 40.2161 47.3709 40.2271 44.5354 40.2236C45.0003 36.81 46.3126 33.5186 48.3186 30.7185C50.0428 28.3151 52.0404 26.1233 54.0979 24.0033C57.1082 20.9314 60.2805 18.0199 63.5567 15.234Z" fill="#1DC46C"/>
<path d="M9.43407 18.7028L9.7225 23.8525C13.0183 19.87 17.3439 17.8789 22.6995 17.8789C31.9826 17.8789 36.7065 23.1933 36.8714 33.8222V63.278H26.8605V34.3989C26.8605 31.57 26.2425 29.4827 25.0066 28.1369C23.7981 26.7637 21.807 26.077 19.033 26.077C14.9958 26.077 11.9883 27.9034 10.0109 31.5563V63.278H0V18.7028H9.43407Z" fill="white"/>
<path d="M107.2 45.042L102.751 49.615V64.1575H92.7402V0.878906H102.751V37.3794L105.882 33.4658L118.2 19.5823H130.23L113.668 38.1622L132 64.1575H120.424L107.2 45.042Z" fill="white"/>
<path d="M32.6562 75.3888C32.6562 74.4556 32.8451 73.6391 33.2228 72.9392C33.6006 72.2282 34.1172 71.6782 34.7726 71.2894C35.4392 70.9006 36.1835 70.7062 37.0056 70.7062C37.7166 70.7062 38.3777 70.8728 38.9887 71.2061C39.5997 71.5283 40.0663 71.956 40.3885 72.4892V67.6566H41.9216V79.9882H40.3885V78.2717C40.0885 78.8161 39.6441 79.266 39.0553 79.6215C38.4665 79.9659 37.7777 80.1381 36.989 80.1381C36.178 80.1381 35.4392 79.9382 34.7726 79.5382C34.1172 79.1383 33.6006 78.5773 33.2228 77.8551C32.8451 77.133 32.6562 76.3109 32.6562 75.3888ZM40.3885 75.4055C40.3885 74.7167 40.2496 74.1168 39.9719 73.6057C39.6941 73.0947 39.3164 72.7059 38.8387 72.4392C38.3721 72.1615 37.8555 72.0226 37.2889 72.0226C36.7223 72.0226 36.2057 72.156 35.7391 72.4226C35.2725 72.6892 34.9004 73.078 34.6226 73.5891C34.3449 74.1001 34.206 74.7 34.206 75.3888C34.206 76.0887 34.3449 76.6997 34.6226 77.2219C34.9004 77.7329 35.2725 78.1273 35.7391 78.4051C36.2057 78.6717 36.7223 78.805 37.2889 78.805C37.8555 78.805 38.3721 78.6717 38.8387 78.4051C39.3164 78.1273 39.6941 77.7329 39.9719 77.2219C40.2496 76.6997 40.3885 76.0943 40.3885 75.4055ZM52.8164 75.0722C52.8164 75.361 52.7998 75.6666 52.7664 75.9887H45.4675C45.523 76.8886 45.8285 77.5941 46.384 78.1051C46.9506 78.605 47.6338 78.855 48.4337 78.855C49.0892 78.855 49.6335 78.705 50.0668 78.4051C50.5112 78.094 50.8223 77.6829 51 77.1719H52.6331C52.3887 78.0495 51.8999 78.7661 51.1667 79.3216C50.4334 79.866 49.5224 80.1381 48.4337 80.1381C47.5672 80.1381 46.7895 79.9437 46.1007 79.5549C45.423 79.1661 44.8898 78.6161 44.5009 77.9051C44.1121 77.183 43.9177 76.3498 43.9177 75.4055C43.9177 74.4612 44.1066 73.6335 44.4843 72.9225C44.862 72.2115 45.3897 71.6671 46.0674 71.2894C46.7562 70.9006 47.5449 70.7062 48.4337 70.7062C49.3003 70.7062 50.0668 70.895 50.7334 71.2727C51.4 71.6505 51.911 72.1726 52.2665 72.8392C52.6331 73.4946 52.8164 74.239 52.8164 75.0722ZM51.25 74.7556C51.25 74.1779 51.1222 73.6835 50.8667 73.2725C50.6112 72.8503 50.2612 72.5337 49.8168 72.3226C49.3836 72.1004 48.9003 71.9893 48.3671 71.9893C47.6005 71.9893 46.945 72.2337 46.4007 72.7225C45.8674 73.2114 45.5619 73.889 45.4841 74.7556H51.25ZM56.3345 67.6566V79.9882H54.8181V67.6566H56.3345ZM59.7022 69.373C59.4134 69.373 59.169 69.273 58.969 69.0731C58.769 68.8731 58.6691 68.6287 58.6691 68.3398C58.6691 68.051 58.769 67.8066 58.969 67.6066C59.169 67.4066 59.4134 67.3066 59.7022 67.3066C59.98 67.3066 60.2133 67.4066 60.4021 67.6066C60.6021 67.8066 60.7021 68.051 60.7021 68.3398C60.7021 68.6287 60.6021 68.8731 60.4021 69.0731C60.2133 69.273 59.98 69.373 59.7022 69.373ZM60.4355 70.8561V79.9882H58.919V70.8561H60.4355ZM66.4195 78.5884L69.2524 70.8561H70.8688L67.286 79.9882H65.5196L61.9368 70.8561H63.5699L66.4195 78.5884ZM80.6933 75.0722C80.6933 75.361 80.6766 75.6666 80.6433 75.9887H73.3443C73.3999 76.8886 73.7054 77.5941 74.2608 78.1051C74.8274 78.605 75.5107 78.855 76.3106 78.855C76.966 78.855 77.5104 78.705 77.9437 78.4051C78.388 78.094 78.6991 77.6829 78.8769 77.1719H80.5099C80.2655 78.0495 79.7767 78.7661 79.0435 79.3216C78.3103 79.866 77.3993 80.1381 76.3106 80.1381C75.444 80.1381 74.6663 79.9437 73.9776 79.5549C73.2999 79.1661 72.7666 78.6161 72.3778 77.9051C71.9889 77.183 71.7945 76.3498 71.7945 75.4055C71.7945 74.4612 71.9834 73.6335 72.3611 72.9225C72.7388 72.2115 73.2665 71.6671 73.9442 71.2894C74.633 70.9006 75.4218 70.7062 76.3106 70.7062C77.1771 70.7062 77.9437 70.895 78.6102 71.2727C79.2768 71.6505 79.7878 72.1726 80.1433 72.8392C80.51 73.4946 80.6933 74.239 80.6933 75.0722ZM79.1268 74.7556C79.1268 74.1779 78.9991 73.6835 78.7435 73.2725C78.488 72.8503 78.1381 72.5337 77.6937 72.3226C77.2604 72.1004 76.7772 71.9893 76.2439 71.9893C75.4773 71.9893 74.8219 72.2337 74.2775 72.7225C73.7443 73.2114 73.4387 73.889 73.361 74.7556H79.1268ZM84.2114 72.3393C84.478 71.8171 84.8557 71.4116 85.3445 71.1228C85.8445 70.8339 86.4499 70.6895 87.1609 70.6895V72.2559H86.761C85.0612 72.2559 84.2114 73.178 84.2114 75.0222V79.9882H82.6949V70.8561H84.2114V72.3393ZM96.7771 70.8561L91.2779 84.2875H89.7114L91.5112 79.8882L87.8283 70.8561H89.5114L92.3777 78.2551L95.2106 70.8561H96.7771Z" fill="white"/>
</svg>
