<svg width="15" height="16" viewBox="0 0 15 16" fill="none" xmlns="http://www.w3.org/2000/svg">
<path d="M13.0865 1.61225C11.6295 0.155291 9.25914 0.155291 7.80217 1.61225L2.23837 7.17602C2.06667 7.34773 2.06667 7.62591 2.23837 7.79761C2.41008 7.96932 2.68826 7.96932 2.85997 7.79761L8.42374 2.23384C9.50377 1.15467 11.3849 1.15467 12.4649 2.23384C13.5788 3.3478 13.5788 5.16063 12.4649 6.27459L4.69583 14.1311C4.03131 14.7956 2.87356 14.7956 2.20908 14.1311C1.52353 13.4456 1.52353 12.3303 2.20908 11.6448L9.66736 4.09859C9.91632 3.84963 10.3507 3.84963 10.5997 4.09859C10.8568 4.3557 10.8568 4.77426 10.5997 5.0314L3.45267 12.2664C3.30443 12.4146 3.30443 12.7397 3.45267 12.8879C3.62438 13.0597 3.90255 13.0597 4.07426 12.8879L11.2213 5.65297C11.8214 5.05282 11.8214 4.07712 11.2213 3.477C10.6401 2.89578 9.62611 2.89663 9.04577 3.477L1.58749 11.0232C0.567192 12.0435 0.567192 13.7324 1.58749 14.7527C2.08588 15.2511 2.74823 15.5195 3.45264 15.5195C4.15706 15.5195 4.81946 15.2511 5.31742 14.7527L13.0865 6.89615C14.5434 5.43919 14.5434 3.06919 13.0865 1.61225Z" fill="#325F93"/>
</svg>
