<svg width="130" height="40" viewBox="0 0 130 40" fill="none" xmlns="http://www.w3.org/2000/svg">
<g clip-path="url(#clip0_402_6219)">
<path d="M119.648 0.00013H10.3582C9.95986 0.00013 9.56627 0.00013 9.16895 0.00213C8.83635 0.00413 8.50641 0.00994 8.17062 0.01483C7.44114 0.0227318 6.71337 0.0818063 5.99364 0.19154C5.27492 0.303663 4.57871 0.515046 3.92857 0.81854C3.27922 1.1246 2.68589 1.5223 2.17011 1.9972C1.65162 2.47077 1.21942 3.01815 0.890121 3.61829C0.559918 4.21724 0.330954 4.85907 0.211137 5.52161C0.090181 6.18332 0.0250935 6.85265 0.0164586 7.52361C0.00637702 7.83021 0.00531237 8.13783 0 8.44447V31.5587C0.00531237 31.8692 0.00637702 32.17 0.0164586 32.4806C0.0250961 33.1516 0.0901836 33.8209 0.211137 34.4825C0.330623 35.1455 0.5596 35.7877 0.890121 36.3868C1.21927 36.985 1.65153 37.5302 2.17011 38.0011C2.68394 38.4781 3.27765 38.8761 3.92857 39.1798C4.57871 39.4841 5.27484 39.6968 5.99364 39.8106C6.71349 39.9195 7.44118 39.9786 8.17062 39.9874C8.50641 39.9942 8.83635 39.9981 9.16895 39.9981C9.56626 40.0001 9.95988 40.0001 10.3582 40.0001H119.648C120.038 40.0001 120.435 40.0001 120.825 39.9981C121.156 39.9981 121.496 39.9942 121.827 39.9874C122.555 39.9791 123.281 39.92 124 39.8106C124.721 39.696 125.419 39.4834 126.073 39.1798C126.723 38.8759 127.316 38.478 127.829 38.0011C128.347 37.5284 128.78 36.9836 129.113 36.3868C129.441 35.7872 129.668 35.1451 129.786 34.4825C129.907 33.8208 129.974 33.1516 129.987 32.4806C129.992 32.17 129.992 31.8692 129.992 31.5587C130 31.1954 130 30.8341 130 30.4649V9.53626C130 9.17005 130 8.80677 129.992 8.44447C129.992 8.13783 129.992 7.83021 129.987 7.52357C129.974 6.85255 129.907 6.18337 129.786 5.52157C129.668 4.85941 129.441 4.21763 129.113 3.61825C128.442 2.41533 127.379 1.43616 126.073 0.81845C125.419 0.515697 124.721 0.30437 124 0.19145C123.281 0.0812328 122.555 0.0221378 121.827 0.01469C121.496 0.00981 121.156 0.00395 120.825 0.002C120.435 0 120.038 0 119.648 0V0.00013Z" fill="#A6A6A6"/>
<path d="M9.17407 39.125C8.84308 39.125 8.52008 39.1211 8.19168 39.1143C7.51137 39.1061 6.83265 39.0516 6.16109 38.9512C5.53489 38.8519 4.92828 38.6673 4.36125 38.4033C3.79942 38.1415 3.28699 37.7983 2.84359 37.3867C2.39376 36.98 2.01926 36.5082 1.73493 35.9902C1.44746 35.4688 1.24852 34.9099 1.14503 34.333C1.03327 33.7131 0.972799 33.0863 0.964147 32.458C0.957259 32.2471 0.948242 31.5449 0.948242 31.5449V8.44434C0.948242 8.44434 0.957846 7.75293 0.964201 7.5498C0.972486 6.92248 1.0326 6.29665 1.14403 5.67773C1.24771 5.09925 1.44681 4.53875 1.73443 4.01563C2.01772 3.49794 2.39014 3.02586 2.83725 2.61768C3.28386 2.20562 3.79793 1.8606 4.36072 1.59521C4.92644 1.33209 5.53191 1.14873 6.15684 1.05127C6.83061 0.949836 7.51168 0.894996 8.19435 0.88721L9.17461 0.875H120.82L121.812 0.8877C122.488 0.895099 123.163 0.94945 123.831 1.05029C124.462 1.14898 125.074 1.33362 125.646 1.59814C126.773 2.13299 127.691 2.97916 128.269 4.01807C128.552 4.53758 128.748 5.09351 128.851 5.66699C128.964 6.29099 129.027 6.92174 129.04 7.5542C129.043 7.8374 129.043 8.1416 129.043 8.44434C129.051 8.81934 129.051 9.17627 129.051 9.53613V30.4648C129.051 30.8281 129.051 31.1826 129.043 31.54C129.043 31.8652 129.043 32.1631 129.039 32.4697C129.026 33.0909 128.964 33.7104 128.853 34.3232C128.752 34.9043 128.554 35.4675 128.266 35.9932C127.98 36.5056 127.608 36.9733 127.163 37.3789C126.719 37.7927 126.206 38.1379 125.643 38.4014C125.072 38.6674 124.461 38.8527 123.831 38.9512C123.159 39.0522 122.48 39.1067 121.8 39.1143C121.482 39.1211 121.149 39.125 120.825 39.125L119.647 39.127L9.17407 39.125Z" fill="black"/>
<path d="M26.9084 20.3003C26.9201 19.4657 27.161 18.6473 27.6086 17.9213C28.0562 17.1954 28.696 16.5854 29.4685 16.1483C28.9778 15.5031 28.3304 14.9722 27.5777 14.5976C26.825 14.2231 25.9878 14.0152 25.1326 13.9906C23.3084 13.8143 21.5398 14.9954 20.6102 14.9954C19.6626 14.9954 18.2313 14.0081 16.69 14.0373C15.6931 14.0669 14.7215 14.3338 13.8699 14.8118C13.0183 15.2899 12.3158 15.9629 11.8307 16.7651C9.72968 20.1136 11.2969 25.0346 13.3095 27.7412C14.3165 29.0666 15.4933 30.547 17.0332 30.4945C18.5401 30.437 19.1028 29.6101 20.9218 29.6101C22.7238 29.6101 23.2518 30.4945 24.8229 30.4612C26.4399 30.437 27.4586 29.1299 28.4302 27.792C29.1537 26.8477 29.7105 25.8039 30.0798 24.6995C29.1404 24.3338 28.3388 23.7216 27.7748 22.9393C27.2108 22.157 26.9095 21.2392 26.9084 20.3003Z" fill="white"/>
<path d="M23.941 12.2113C24.8227 11.2371 25.257 9.98494 25.1518 8.7207C23.8049 8.85092 22.5607 9.44348 21.6672 10.3803C21.2303 10.838 20.8957 11.3704 20.6825 11.9472C20.4693 12.524 20.3817 13.1337 20.4247 13.7417C21.0984 13.7481 21.7649 13.6137 22.374 13.3486C22.9831 13.0835 23.5189 12.6947 23.941 12.2113Z" fill="white"/>
<path d="M45.9566 27.1397H40.8143L39.5794 30.4961H37.4014L42.272 18.0781H44.5349L49.4056 30.4961H47.1904L45.9566 27.1397ZM41.3469 25.5908H45.423L43.4136 20.1436H43.3574L41.3469 25.5908Z" fill="white"/>
<path d="M59.9242 25.9695C59.9242 28.7829 58.2882 30.5905 55.8195 30.5905C55.1941 30.6207 54.5722 30.4881 54.0249 30.2079C53.4775 29.9278 53.027 29.5114 52.7248 29.0065H52.6781V33.4909H50.6592V21.4421H52.6134V22.948H52.6505C52.9666 22.4455 53.4248 22.0313 53.9763 21.7495C54.5277 21.4676 55.1519 21.3287 55.7824 21.3474C58.2786 21.3474 59.9242 23.1638 59.9242 25.9695ZM57.849 25.9695C57.849 24.1365 56.8199 22.9314 55.2498 22.9314C53.7072 22.9314 52.6696 24.1618 52.6696 25.9695C52.6696 27.7937 53.7072 29.0154 55.2498 29.0154C56.8199 29.0154 57.849 27.8191 57.849 25.9695Z" fill="white"/>
<path d="M70.7503 25.9694C70.7503 28.7829 69.1144 30.5905 66.6457 30.5905C66.0203 30.6206 65.3983 30.488 64.851 30.2079C64.3037 29.9278 63.8532 29.5114 63.551 29.0065H63.5043V33.4909H61.4854V21.4421H63.4395V22.948H63.4767C63.7928 22.4455 64.2509 22.0313 64.8024 21.7495C65.3539 21.4676 65.978 21.3287 66.6085 21.3474C69.1049 21.3474 70.7503 23.1638 70.7503 25.9694ZM68.6752 25.9694C68.6752 24.1364 67.6461 22.9314 66.0759 22.9314C64.5334 22.9314 63.4958 24.1618 63.4958 25.9694C63.4958 27.7937 64.5334 29.0153 66.0759 29.0153C67.6461 29.0153 68.6752 27.8191 68.6752 25.9694H68.6752Z" fill="white"/>
<path d="M77.9046 27.0362C78.0542 28.2676 79.3538 29.0762 81.1298 29.0762C82.8315 29.0762 84.0558 28.2676 84.0558 27.1572C84.0558 26.1934 83.3174 25.6162 81.569 25.2207L79.8206 24.833C77.3434 24.2822 76.1933 23.2158 76.1933 21.4854C76.1933 19.3428 78.2218 17.8711 81.1022 17.8711C83.9528 17.8711 85.9071 19.3428 85.9728 21.4854H83.9348C83.8128 20.2461 82.6999 19.4981 81.0735 19.4981C79.4471 19.4981 78.3342 20.2549 78.3342 21.3565C78.3342 22.2344 79.045 22.751 80.7839 23.1465L82.2702 23.4824C85.0381 24.0849 86.1882 25.1084 86.1882 26.9248C86.1882 29.248 84.1777 30.7031 80.9801 30.7031C77.9884 30.7031 75.9684 29.2822 75.8379 27.0361L77.9046 27.0362Z" fill="white"/>
<path d="M90.5455 19.3008V21.4434H92.4159V22.915H90.5455V27.9062C90.5455 28.6816 90.92 29.043 91.7422 29.043C91.9642 29.0394 92.1859 29.025 92.4063 29V30.4629C92.0367 30.5264 91.6609 30.5552 91.2849 30.5488C89.2936 30.5488 88.517 29.8603 88.517 28.1045V22.915H87.0869V21.4434H88.517V19.3008H90.5455Z" fill="white"/>
<path d="M93.499 25.9707C93.499 23.1221 95.3217 21.332 98.1638 21.332C101.016 21.332 102.83 23.122 102.83 25.9707C102.83 28.8272 101.025 30.6094 98.1638 30.6094C95.3036 30.6094 93.499 28.8271 93.499 25.9707ZM100.773 25.9707C100.773 24.0166 99.7998 22.8633 98.1638 22.8633C96.5279 22.8633 95.5561 24.0254 95.5561 25.9707C95.5561 27.9326 96.5279 29.0772 98.1638 29.0772C99.7998 29.0772 100.773 27.9326 100.773 25.9707H100.773Z" fill="white"/>
<path d="M104.494 21.442H106.42V22.983H106.466C106.597 22.5017 106.903 22.0764 107.334 21.7785C107.765 21.4806 108.294 21.3284 108.832 21.3473C109.065 21.3465 109.297 21.3698 109.524 21.4166V23.1549C109.23 23.0723 108.924 23.0343 108.617 23.0426C108.324 23.0316 108.031 23.0792 107.76 23.1821C107.488 23.285 107.244 23.4408 107.044 23.6386C106.845 23.8365 106.694 24.0719 106.602 24.3286C106.51 24.5852 106.48 24.8571 106.513 25.1256V30.4957H104.494L104.494 21.442Z" fill="white"/>
<path d="M118.832 27.8379C118.561 29.4814 116.822 30.6094 114.597 30.6094C111.736 30.6094 109.96 28.8447 109.96 26.0137C109.96 23.1738 111.745 21.332 114.512 21.332C117.234 21.332 118.945 23.0527 118.945 25.7978V26.4346H111.998V26.5469C111.966 26.8801 112.011 27.2157 112.131 27.5316C112.251 27.8474 112.442 28.1362 112.692 28.3787C112.942 28.6213 113.246 28.8121 113.582 28.9384C113.919 29.0647 114.281 29.1236 114.644 29.1113C115.121 29.1525 115.6 29.0508 116.009 28.8213C116.418 28.5919 116.736 28.247 116.915 27.8379L118.832 27.8379ZM112.008 25.1357H116.925C116.943 24.8361 116.894 24.5363 116.78 24.2551C116.666 23.9739 116.491 23.7174 116.264 23.5016C116.037 23.2858 115.765 23.1155 115.464 23.0013C115.162 22.8871 114.838 22.8314 114.512 22.8379C114.184 22.8361 113.858 22.8942 113.553 23.009C113.249 23.1237 112.973 23.2928 112.74 23.5064C112.507 23.72 112.322 23.974 112.197 24.2537C112.071 24.5333 112.007 24.8331 112.008 25.1357V25.1357Z" fill="white"/>
<path d="M39.911 11.2534H40.7778C40.927 11.2705 41.0785 11.259 41.2226 11.2195C41.3667 11.1801 41.5004 11.1136 41.6152 11.0242C41.73 10.9349 41.8235 10.8246 41.8897 10.7003C41.9559 10.576 41.9935 10.4405 42 10.3022C42 9.75193 41.5501 9.39646 40.7874 9.39646C40.6345 9.3768 40.4789 9.38553 40.3297 9.42214C40.1806 9.45875 40.0409 9.52249 39.919 9.60961C39.7971 9.69672 39.6953 9.80544 39.6198 9.92935C39.5443 10.0533 39.4965 10.1898 39.4792 10.331H38.5276C38.544 10.0747 38.6175 9.82428 38.7436 9.59527C38.8697 9.36626 39.0456 9.16359 39.2605 8.99989C39.4753 8.83618 39.7245 8.71494 39.9925 8.64372C40.2605 8.5725 40.5415 8.55282 40.8181 8.58591C42.0944 8.58591 42.993 9.24362 42.993 10.1904C42.996 10.5076 42.8807 10.8161 42.6664 11.0645C42.4521 11.3129 42.1517 11.486 41.8154 11.5551V11.6255C42.2141 11.6417 42.5896 11.8027 42.8597 12.073C43.1299 12.3434 43.2728 12.7013 43.2572 13.0683C43.2277 13.3322 43.1412 13.588 43.0029 13.8208C42.8646 14.0535 42.6772 14.2585 42.4518 14.4237C42.2263 14.5889 41.9672 14.7111 41.6898 14.7829C41.4124 14.8548 41.1222 14.875 40.8362 14.8423C40.5496 14.8782 40.258 14.8607 39.9789 14.7908C39.6999 14.7208 39.4389 14.5998 39.2117 14.4351C38.9845 14.2703 38.7957 14.0651 38.6564 13.8317C38.5172 13.5983 38.4305 13.3415 38.4014 13.0766H39.3679C39.4262 13.6474 39.9959 14.0156 40.8362 14.0156C41.6764 14.0156 42.2249 13.6021 42.2249 13.0191C42.2249 12.4278 41.7082 12.0635 40.8054 12.0635H39.911V11.2534Z" fill="white"/>
<path d="M44.3555 13.4238C44.3555 12.6133 45.0122 12.146 46.1749 12.0796L47.5 12.0093V11.6206C47.5 11.145 47.1595 10.8765 46.4985 10.8765C45.9596 10.8765 45.5872 11.0586 45.479 11.377H44.5443C44.643 10.6035 45.4344 10.1074 46.5441 10.1074C47.7705 10.1074 48.4623 10.6694 48.4623 11.6206V14.6973H47.5318V14.0645H47.4555C47.3004 14.2914 47.0827 14.4765 46.8246 14.6007C46.5664 14.7249 46.2771 14.7838 45.9861 14.7715C45.7807 14.7911 45.5732 14.7709 45.3768 14.7122C45.1804 14.6535 44.9996 14.5576 44.846 14.4307C44.6923 14.3037 44.5693 14.1485 44.4848 13.9751C44.4003 13.8017 44.3563 13.6139 44.3555 13.4238ZM47.5 13.0391V12.6626L46.3054 12.7329C45.6317 12.7744 45.3262 12.9853 45.3262 13.3823C45.3262 13.7876 45.7081 14.0234 46.2333 14.0234C46.3872 14.0378 46.5426 14.0235 46.6904 13.9814C46.8381 13.9393 46.9752 13.8703 47.0934 13.7784C47.2115 13.6866 47.3084 13.5738 47.3783 13.4468C47.4482 13.3198 47.4896 13.1811 47.5 13.0391Z" fill="white"/>
<path d="M51.024 10.9434V14.6982H50.0586V10.1953H53.2796V10.9433L51.024 10.9434Z" fill="white"/>
<path d="M59.1308 12.4438C59.1308 13.8745 58.3447 14.7714 57.1098 14.7714C56.8066 14.7905 56.5039 14.7294 56.2372 14.5954C55.9705 14.4614 55.7509 14.2601 55.6043 14.0151H55.5279V16.1943H54.5625V10.1943H55.4919V10.9385H55.564C55.7132 10.6849 55.9356 10.4742 56.2067 10.3297C56.4778 10.1852 56.787 10.1125 57.1002 10.1196C58.3447 10.1196 59.1308 11.0126 59.1308 12.4438ZM58.1378 12.4438C58.1378 11.4926 57.6487 10.9179 56.8307 10.9179C56.0181 10.9179 55.5099 11.5048 55.5099 12.4477C55.5099 13.3862 56.0181 13.9736 56.8265 13.9736C57.6487 13.9736 58.1378 13.3989 58.1378 12.4438Z" fill="white"/>
<path d="M60.4166 16.311V15.5459C60.5211 15.5581 60.6264 15.5637 60.7317 15.5625C60.9374 15.5765 61.1414 15.5201 61.3047 15.4042C61.468 15.2882 61.579 15.1208 61.6165 14.9341L61.6886 14.7148L59.918 10.1953H60.9693L62.1958 13.772H62.2722L63.4943 10.1953H64.5181L62.6944 14.8843C62.2764 15.98 61.8139 16.3316 60.8166 16.3316C60.736 16.3315 60.5068 16.3232 60.4166 16.311Z" fill="white"/>
<path d="M65.2705 13.4205H66.2317C66.3261 13.8175 66.7303 14.0245 67.2958 14.0245C67.9387 14.0245 68.3334 13.7638 68.3334 13.3585C68.3334 12.9244 67.979 12.7174 67.2958 12.7174H66.5638V12.027H67.283C67.8665 12.027 68.1636 11.8204 68.1636 11.444C68.1636 11.1134 67.8761 10.861 67.283 10.861C66.743 10.861 66.3484 11.0719 66.2858 11.4274H65.3554C65.4249 11.0189 65.6659 10.6519 66.0264 10.4053C66.3869 10.1586 66.8381 10.0521 67.283 10.1085C68.4458 10.1085 69.111 10.5924 69.111 11.3532C69.1164 11.565 69.0427 11.7721 68.9021 11.9399C68.7615 12.1077 68.5626 12.226 68.3387 12.275V12.3454C68.6053 12.377 68.85 12.4977 69.0264 12.6844C69.2028 12.8712 69.2986 13.1111 69.2956 13.3585C69.2956 14.2145 68.5042 14.7809 67.2958 14.7809C66.2274 14.7809 65.3596 14.3302 65.2705 13.4205Z" fill="white"/>
<path d="M70.6855 14.6982V10.1953H71.6425V13.2925H71.7189L73.9733 10.1953H74.9303V14.6983H73.9733V11.5845H73.9012L71.6425 14.6983L70.6855 14.6982Z" fill="white"/>
<path d="M80.2018 10.9433H78.6613V14.6982H77.6948V10.9433H76.1543V10.1953H80.2018V10.9433Z" fill="white"/>
<path d="M85.4023 13.4815C85.2708 13.8931 84.9863 14.249 84.5987 14.4871C84.2111 14.7252 83.7449 14.8304 83.2816 14.7843C82.9593 14.7921 82.639 14.7353 82.343 14.6177C82.0469 14.5002 81.7822 14.3248 81.5672 14.1037C81.3522 13.8825 81.1921 13.621 81.0979 13.3371C81.0037 13.0533 80.9778 12.754 81.0218 12.46C80.9789 12.1652 81.0053 11.8652 81.0993 11.5805C81.1933 11.2959 81.3526 11.0331 81.5664 10.81C81.7803 10.587 82.0437 10.4088 82.3389 10.2876C82.6341 10.1664 82.9541 10.105 83.2773 10.1075C84.6385 10.1075 85.4607 10.9635 85.4607 12.3775V12.6876H82.0064V12.7374C81.9911 12.9027 82.0135 13.0691 82.0722 13.2259C82.131 13.3827 82.2247 13.5265 82.3474 13.648C82.4701 13.7695 82.619 13.866 82.7847 13.9313C82.9503 13.9967 83.129 14.0294 83.3092 14.0274C83.5399 14.0528 83.7737 14.0145 83.9808 13.9173C84.1878 13.8201 84.3588 13.6684 84.4719 13.4815L85.4023 13.4815ZM82.0063 12.0304H84.4761C84.4883 11.8793 84.4661 11.7276 84.4108 11.5849C84.3555 11.4422 84.2684 11.3118 84.1551 11.202C84.0418 11.0921 83.9048 11.0053 83.7529 10.9471C83.601 10.8888 83.4376 10.8605 83.2731 10.8639C83.106 10.8618 82.9403 10.8905 82.7855 10.9484C82.6308 11.0063 82.4902 11.0921 82.3721 11.2009C82.254 11.3096 82.1608 11.4391 82.098 11.5815C82.0352 11.724 82.004 11.8766 82.0064 12.0304H82.0063Z" fill="white"/>
<path d="M89.4951 10.1953H91.7007C92.6577 10.1953 93.2189 10.6416 93.2189 11.3403C93.2204 11.562 93.1391 11.7775 92.9887 11.9506C92.8382 12.1238 92.6278 12.2441 92.3925 12.2915V12.3618C92.6781 12.3784 92.946 12.4954 93.1407 12.6886C93.3353 12.8818 93.442 13.1364 93.4385 13.3999C93.4385 14.1855 92.7967 14.6982 91.723 14.6982H89.4951V10.1953ZM90.4521 10.8774V12.0434H91.409C91.9925 12.0434 92.2715 11.8369 92.2715 11.456C92.2715 11.105 92.0286 10.8774 91.5162 10.8774L90.4521 10.8774ZM90.4521 12.6968V14.0161H91.5968C92.1676 14.0161 92.4731 13.7842 92.4731 13.3584C92.4731 12.9077 92.1273 12.6968 91.4759 12.6968L90.4521 12.6968Z" fill="white"/>
</g>
<defs>
<clipPath id="clip0_402_6219">
<rect width="130" height="40" fill="white"/>
</clipPath>
</defs>
</svg>
