<svg width="46" height="24" viewBox="0 0 46 24" fill="none" xmlns="http://www.w3.org/2000/svg">
<path d="M45.4526 11.278L35.2255 1.05086C34.8582 0.621874 34.2125 0.571865 33.7836 0.93933C33.3546 1.30671 33.3046 1.95234 33.672 2.38133C33.7063 2.42131 33.7436 2.45867 33.7836 2.49286L42.2618 10.9814H1.77268C1.2079 10.9814 0.75 11.4393 0.75 12.0041C0.75 12.569 1.2079 13.0268 1.77268 13.0268H42.2618L33.7836 21.505C33.3546 21.8724 33.3046 22.518 33.672 22.947C34.0395 23.376 34.685 23.426 35.114 23.0585C35.154 23.0243 35.1914 22.987 35.2255 22.947L45.4527 12.7199C45.8491 12.3211 45.8491 11.6769 45.4526 11.278Z" fill="#2ABD75"/>
</svg>
