<svg width="14" height="14" viewBox="0 0 14 14" fill="none" xmlns="http://www.w3.org/2000/svg">
<path d="M4.78176 8.06855L4.42938 8.41058C4.37962 8.45893 4.35156 8.52529 4.35156 8.59463V8.74059C4.35156 8.88224 4.46645 8.99713 4.60814 8.99713H6.71229C6.85417 8.99713 6.96896 8.88224 6.96896 8.74059V8.55166C6.96896 8.41001 6.85417 8.29508 6.71229 8.29508H5.54968L5.58173 8.2656C6.34158 7.53355 6.87938 6.95735 6.87938 6.20709C6.87938 5.60723 6.48954 5.00195 5.61827 5.00195C5.23792 5.00195 4.86544 5.12403 4.56935 5.34554C4.47319 5.41768 4.43981 5.54695 4.48931 5.65659L4.55403 5.79971C4.58546 5.86931 4.6461 5.9213 4.71983 5.94154C4.79312 5.96178 4.87223 5.94811 4.93478 5.90443C5.12517 5.77148 5.32116 5.704 5.5175 5.704C5.89962 5.704 6.0933 5.894 6.0933 6.26608C6.0882 6.77033 5.66994 7.22298 4.78176 8.06855Z" fill="#2BC36F"/>
<path d="M8.61737 5.06534C8.61053 5.06472 8.60361 5.06445 8.59677 5.06445H8.51842C8.43452 5.06445 8.35604 5.10543 8.30809 5.17406L6.73664 7.42291C6.70654 7.46602 6.69043 7.51733 6.69043 7.56989V7.75017C6.69043 7.89186 6.80523 8.00675 6.94692 8.00675H8.38174V8.74147C8.38174 8.88312 8.49653 8.998 8.63823 8.998H8.88323C9.02484 8.998 9.13985 8.88312 9.13985 8.74147V8.00675H9.39279C9.53449 8.00675 9.64942 7.89186 9.64942 7.75017V7.58357C9.64942 7.44196 9.53449 7.32703 9.39279 7.32703H9.13985V5.32103C9.13985 5.17943 9.02484 5.0645 8.88323 5.0645H8.63823C8.63122 5.0645 8.6242 5.06476 8.61737 5.06534ZM8.38174 7.32703H7.60698C7.80381 7.04124 8.14034 6.55076 8.38174 6.18826V7.32703Z" fill="#2BC36F"/>
<path d="M7.01 12.8903C3.99036 12.8903 1.53366 10.4336 1.53366 7.41394C1.53366 4.5546 3.73658 2.20049 6.53421 1.95847V2.83142C6.53421 2.89344 6.56843 2.95043 6.62313 2.97955C6.6479 2.99278 6.67502 2.99926 6.70205 2.99926C6.73477 2.99926 6.76749 2.98968 6.79563 2.97072L8.77779 1.63898C8.82423 1.60782 8.85206 1.55557 8.85206 1.49964C8.85206 1.44375 8.82423 1.39146 8.77779 1.36029L6.79563 0.028553C6.74418 -0.00602779 6.67782 -0.00949032 6.62308 0.0197636C6.56839 0.0489287 6.53416 0.105927 6.53416 0.167897V0.845043C3.12389 1.08973 0.423828 3.94227 0.423828 7.41389C0.423828 11.0455 3.37843 14 7.00995 14C8.69132 14 10.292 13.3665 11.5171 12.2162L10.7575 11.4072C9.73891 12.3636 8.40806 12.8903 7.01 12.8903Z" fill="#2BC36F"/>
<path d="M12.6319 3.9807C12.4051 3.60963 12.1397 3.25925 11.8436 2.93945L11.0293 3.69344C11.2758 3.95957 11.4964 4.25108 11.6852 4.55974L12.6319 3.9807Z" fill="#2BC36F"/>
<path d="M12.436 6.6703L13.5357 6.52101C13.477 6.08864 13.3747 5.66102 13.2318 5.25L12.1836 5.6145C12.3023 5.95582 12.3872 6.31104 12.436 6.6703Z" fill="#2BC36F"/>
<path d="M10.7871 2.01739C10.43 1.76689 10.0467 1.55146 9.64802 1.37695L9.20312 2.39365C9.53446 2.53868 9.85301 2.71775 10.1499 2.92595L10.7871 2.01739Z" fill="#2BC36F"/>
<path d="M11.2402 10.8915L12.0971 11.5967C12.3743 11.2599 12.6187 10.8946 12.8235 10.5108L11.8444 9.98828C11.6742 10.3074 11.4709 10.6113 11.2402 10.8915Z" fill="#2BC36F"/>
<path d="M12.47 7.83789C12.4423 8.19999 12.3785 8.55988 12.2803 8.90742L13.3482 9.20938C13.4665 8.79094 13.5433 8.35794 13.5766 7.92246L12.47 7.83789Z" fill="#2BC36F"/>
</svg>
