<svg width="19" height="29" viewBox="0 0 19 29" fill="none" xmlns="http://www.w3.org/2000/svg">
<path d="M13.0547 0.224184C13.6791 0.0412711 14.3339 -0.0300074 14.9815 0.0114334C15.1009 1.49693 14.6389 3.03476 13.6716 4.15022C12.6956 5.29277 11.2391 5.95806 9.76911 5.99682C9.51288 6.00607 9.25672 5.99446 9.0016 5.97081C8.97119 4.6477 9.37503 3.31369 10.1542 2.25982C10.8714 1.27844 11.9082 0.555073 13.0547 0.224184Z" fill="#325F93" fill-opacity="0.1"/>
<path d="M8.78273 7.26069C9.00587 7.07399 9.31629 6.9436 9.61338 7.0244C9.79877 7.07473 9.98724 7.14539 10.1291 7.27577C11.1992 8.18196 12.2449 9.11405 13.2675 10.0694C14.6353 11.3563 15.9758 12.6765 17.1787 14.1105C18.7517 16.2212 19.3507 18.9755 18.7993 21.5194C18.3868 23.4843 17.2921 25.3064 15.7328 26.6304C13.9915 28.1261 11.6794 28.9887 9.34743 29C7.827 28.962 6.31829 28.571 4.98177 27.8714C3.65025 27.1778 2.49047 26.1781 1.6306 24.9769C0.761309 23.7713 0.200516 22.3628 0 20.9077C1.30268 20.907 2.60575 20.9089 3.90843 20.907C4.19348 22.0965 4.9023 23.1841 5.88797 23.949C7.01192 24.8315 8.48635 25.2813 9.932 25.1869C11.2779 25.1129 12.5907 24.5674 13.5686 23.6718C14.5239 22.811 15.1575 21.6227 15.3149 20.3697C15.4924 19.0303 15.1256 17.6346 14.3066 16.5398C13.5234 15.4728 12.3356 14.6951 11.0232 14.3739C9.59351 14.0192 8.02565 14.2037 6.73463 14.8984C5.59203 15.5044 4.66827 16.4925 4.18258 17.662C4.07787 17.8968 4.00815 18.1441 3.93022 18.3879C2.62209 18.3823 1.31358 18.3872 0.00506126 18.3856C0.219612 16.8659 0.825201 15.4007 1.75088 14.1541C2.54654 13.0841 3.46838 12.1084 4.41783 11.1646C5.80697 9.79706 7.27088 8.5009 8.78273 7.26069Z" fill="#325F93" fill-opacity="0.1"/>
</svg>
