<svg width="13" height="13" viewBox="0 0 13 13" fill="none" xmlns="http://www.w3.org/2000/svg">
<path d="M8.61719 6.56731L12.9998 9.33794V3.67969L8.61719 6.56731Z" fill="#2BC36F"/>
<path d="M0 3.67969V9.33794L4.38263 6.56731L0 3.67969Z" fill="#2BC36F"/>
<path d="M12.1875 2.03125H0.812539C0.407102 2.03125 0.0853516 2.3335 0.0244141 2.72269L6.50004 6.98913L12.9757 2.72269C12.9147 2.3335 12.593 2.03125 12.1875 2.03125Z" fill="#2BC36F"/>
<path d="M7.87349 7.05745L6.7238 7.8147C6.65555 7.85939 6.57837 7.88133 6.50037 7.88133C6.42237 7.88133 6.34518 7.85939 6.27693 7.8147L5.12724 7.05664L0.0263672 10.2831C0.0889297 10.669 0.409055 10.9688 0.812867 10.9688H12.1879C12.5917 10.9688 12.9118 10.669 12.9744 10.2831L7.87349 7.05745Z" fill="#2BC36F"/>
</svg>
