<svg width="17" height="18" viewBox="0 0 17 18" fill="none" xmlns="http://www.w3.org/2000/svg">
<path d="M12.3982 0H4.60174C2.0643 0 0 2.18573 0 4.87243V13.1277C0 15.8142 2.0643 18 4.60174 18H12.3984C14.9357 18 17 15.8142 17 13.1277V4.87243C17 2.18573 14.9357 0 12.3982 0V0ZM8.49999 13.9217C5.93686 13.9217 3.85169 11.7139 3.85169 8.99998C3.85169 6.28609 5.93686 4.07826 8.49999 4.07826C11.0631 4.07826 13.1483 6.28609 13.1483 8.99998C13.1483 11.7139 11.0631 13.9217 8.49999 13.9217ZM13.2594 5.23896C12.502 5.23896 11.8859 4.58665 11.8859 3.78465C11.8859 2.98265 12.502 2.3302 13.2594 2.3302C14.0169 2.3302 14.6331 2.98265 14.6331 3.78465C14.6331 4.58665 14.0169 5.23896 13.2594 5.23896Z" fill="#D5D5D5"/>
<path d="M8.50032 5.13281C6.48687 5.13281 4.84863 6.86727 4.84863 8.9993C4.84863 11.1312 6.48687 12.8658 8.50032 12.8658C10.5139 12.8658 12.152 11.1312 12.152 8.9993C12.152 6.86727 10.5139 5.13281 8.50032 5.13281Z" fill="#D5D5D5"/>
<path d="M13.2597 3.38477C13.0519 3.38477 12.8828 3.56384 12.8828 3.78384C12.8828 4.00384 13.0519 4.18292 13.2597 4.18292C13.4676 4.18292 13.6368 4.00398 13.6368 3.78384C13.6368 3.56371 13.4676 3.38477 13.2597 3.38477Z" fill="#D5D5D5"/>
</svg>
