<svg width="13" height="13" viewBox="0 0 13 13" fill="none" xmlns="http://www.w3.org/2000/svg">
<path d="M12.6462 9.54069L10.832 7.7265C10.1841 7.07857 9.08261 7.33777 8.82344 8.18005C8.62906 8.7632 7.98114 9.08717 7.39801 8.95756C6.10216 8.63359 4.35276 6.94899 4.0288 5.58835C3.83442 5.00519 4.22318 4.35727 4.80631 4.16291C5.64861 3.90374 5.90778 2.80227 5.25986 2.15435L3.44567 0.34016C2.92733 -0.113387 2.14982 -0.113387 1.69627 0.34016L0.465215 1.57122C-0.765842 2.86707 0.5948 6.30107 3.64005 9.34631C6.68529 12.3916 10.1193 13.817 11.4151 12.5211L12.6462 11.2901C13.0998 10.7717 13.0998 9.99424 12.6462 9.54069Z" fill="#2BC36F"/>
</svg>
